<mxfile host="app.diagrams.net" agent="Mozilla/5.0 (Windows NT 10.0; Win64; x64) AppleWebKit/537.36 (KHTML, like Gecko) Chrome/140.0.0.0 Safari/537.36 Edg/140.0.0.0" version="28.2.0">
  <diagram name="Page-1" id="Bdd9z1_wXeAfLL9l140E">
    <mxGraphModel dx="1418" dy="756" grid="1" gridSize="10" guides="1" tooltips="1" connect="1" arrows="1" fold="1" page="1" pageScale="1" pageWidth="1169" pageHeight="827" math="0" shadow="0">
      <root>
        <mxCell id="0" />
        <mxCell id="1" parent="0" />
        <mxCell id="pyuSdrlK48sQNZrfjj12-45" value="" style="rounded=0;whiteSpace=wrap;html=1;" parent="1" vertex="1">
          <mxGeometry x="340" y="449" width="160" height="240" as="geometry" />
        </mxCell>
        <mxCell id="pyuSdrlK48sQNZrfjj12-13" style="edgeStyle=orthogonalEdgeStyle;rounded=0;orthogonalLoop=1;jettySize=auto;html=1;exitX=0;exitY=0.5;exitDx=0;exitDy=0;startArrow=classic;startFill=1;" parent="1" source="pyuSdrlK48sQNZrfjj12-1" target="pyuSdrlK48sQNZrfjj12-2" edge="1">
          <mxGeometry relative="1" as="geometry" />
        </mxCell>
        <mxCell id="pyuSdrlK48sQNZrfjj12-48" value="I2C" style="edgeLabel;html=1;align=center;verticalAlign=middle;resizable=0;points=[];fontSize=13;" parent="pyuSdrlK48sQNZrfjj12-13" vertex="1" connectable="0">
          <mxGeometry x="-0.0207" y="-1" relative="1" as="geometry">
            <mxPoint as="offset" />
          </mxGeometry>
        </mxCell>
        <mxCell id="pyuSdrlK48sQNZrfjj12-26" style="edgeStyle=orthogonalEdgeStyle;rounded=0;orthogonalLoop=1;jettySize=auto;html=1;exitX=0.25;exitY=1;exitDx=0;exitDy=0;entryX=0.5;entryY=0;entryDx=0;entryDy=0;startArrow=classic;startFill=1;" parent="1" source="pyuSdrlK48sQNZrfjj12-1" target="pyuSdrlK48sQNZrfjj12-3" edge="1">
          <mxGeometry relative="1" as="geometry" />
        </mxCell>
        <mxCell id="pyuSdrlK48sQNZrfjj12-51" value="I2C" style="edgeLabel;html=1;align=center;verticalAlign=middle;resizable=0;points=[];fontSize=13;" parent="pyuSdrlK48sQNZrfjj12-26" vertex="1" connectable="0">
          <mxGeometry x="0.0727" y="-3" relative="1" as="geometry">
            <mxPoint as="offset" />
          </mxGeometry>
        </mxCell>
        <mxCell id="pyuSdrlK48sQNZrfjj12-31" style="edgeStyle=orthogonalEdgeStyle;rounded=0;orthogonalLoop=1;jettySize=auto;html=1;exitX=1;exitY=0.5;exitDx=0;exitDy=0;entryX=0.5;entryY=0;entryDx=0;entryDy=0;startArrow=classic;startFill=1;" parent="1" source="pyuSdrlK48sQNZrfjj12-1" target="pyuSdrlK48sQNZrfjj12-27" edge="1">
          <mxGeometry relative="1" as="geometry" />
        </mxCell>
        <mxCell id="pyuSdrlK48sQNZrfjj12-49" value="I2C" style="edgeLabel;html=1;align=center;verticalAlign=middle;resizable=0;points=[];fontSize=13;" parent="pyuSdrlK48sQNZrfjj12-31" vertex="1" connectable="0">
          <mxGeometry x="-0.2483" y="2" relative="1" as="geometry">
            <mxPoint as="offset" />
          </mxGeometry>
        </mxCell>
        <mxCell id="pyuSdrlK48sQNZrfjj12-37" style="edgeStyle=orthogonalEdgeStyle;rounded=0;orthogonalLoop=1;jettySize=auto;html=1;exitX=0.75;exitY=1;exitDx=0;exitDy=0;entryX=0.5;entryY=0;entryDx=0;entryDy=0;" parent="1" source="pyuSdrlK48sQNZrfjj12-1" target="pyuSdrlK48sQNZrfjj12-11" edge="1">
          <mxGeometry relative="1" as="geometry" />
        </mxCell>
        <mxCell id="pyuSdrlK48sQNZrfjj12-50" value="SPI" style="edgeLabel;html=1;align=center;verticalAlign=middle;resizable=0;points=[];fontSize=13;" parent="pyuSdrlK48sQNZrfjj12-37" vertex="1" connectable="0">
          <mxGeometry x="0.2182" y="-1" relative="1" as="geometry">
            <mxPoint as="offset" />
          </mxGeometry>
        </mxCell>
        <mxCell id="pyuSdrlK48sQNZrfjj12-1" value="&lt;b&gt;Microcontroller&lt;/b&gt;&lt;br&gt;&lt;i&gt;ESP32-S3&lt;/i&gt;" style="rounded=1;whiteSpace=wrap;html=1;fillColor=#dae8fc;strokeColor=#6c8ebf;fontSize=15;" parent="1" vertex="1">
          <mxGeometry x="630" y="139" width="120" height="60" as="geometry" />
        </mxCell>
        <mxCell id="pyuSdrlK48sQNZrfjj12-12" style="edgeStyle=orthogonalEdgeStyle;rounded=0;orthogonalLoop=1;jettySize=auto;html=1;exitX=0.25;exitY=1;exitDx=0;exitDy=0;startArrow=classic;startFill=1;endArrow=none;endFill=0;entryX=0.25;entryY=0;entryDx=0;entryDy=0;" parent="1" source="pyuSdrlK48sQNZrfjj12-2" target="pyuSdrlK48sQNZrfjj12-45" edge="1">
          <mxGeometry relative="1" as="geometry">
            <mxPoint x="380" y="449" as="targetPoint" />
            <Array as="points">
              <mxPoint x="390" y="449" />
            </Array>
          </mxGeometry>
        </mxCell>
        <mxCell id="pyuSdrlK48sQNZrfjj12-22" value="SHK Signals" style="edgeLabel;html=1;align=center;verticalAlign=middle;resizable=0;points=[];fontSize=13;" parent="pyuSdrlK48sQNZrfjj12-12" vertex="1" connectable="0">
          <mxGeometry x="-0.1143" y="2" relative="1" as="geometry">
            <mxPoint y="-15" as="offset" />
          </mxGeometry>
        </mxCell>
        <mxCell id="pyuSdrlK48sQNZrfjj12-2" value="GPIO-Expander&lt;br&gt;&lt;i&gt;MCP23017&lt;/i&gt;" style="rounded=1;whiteSpace=wrap;html=1;fillColor=#d5e8d4;strokeColor=#82b366;fontSize=15;" parent="1" vertex="1">
          <mxGeometry x="360" y="249" width="120" height="60" as="geometry" />
        </mxCell>
        <mxCell id="pyuSdrlK48sQNZrfjj12-25" style="edgeStyle=orthogonalEdgeStyle;rounded=0;orthogonalLoop=1;jettySize=auto;html=1;exitX=0.5;exitY=1;exitDx=0;exitDy=0;entryX=0.5;entryY=0;entryDx=0;entryDy=0;" parent="1" source="pyuSdrlK48sQNZrfjj12-3" target="pyuSdrlK48sQNZrfjj12-10" edge="1">
          <mxGeometry relative="1" as="geometry" />
        </mxCell>
        <mxCell id="pyuSdrlK48sQNZrfjj12-52" value="GPIO" style="edgeLabel;html=1;align=center;verticalAlign=middle;resizable=0;points=[];fontSize=13;" parent="pyuSdrlK48sQNZrfjj12-25" vertex="1" connectable="0">
          <mxGeometry x="-0.0778" y="1" relative="1" as="geometry">
            <mxPoint as="offset" />
          </mxGeometry>
        </mxCell>
        <mxCell id="pyuSdrlK48sQNZrfjj12-3" value="GPIO-Expander&lt;br&gt;&lt;i&gt;MCP23017&lt;/i&gt;" style="rounded=1;whiteSpace=wrap;html=1;fillColor=#d5e8d4;strokeColor=#82b366;fontSize=15;" parent="1" vertex="1">
          <mxGeometry x="540" y="249" width="120" height="60" as="geometry" />
        </mxCell>
        <mxCell id="pyuSdrlK48sQNZrfjj12-4" value="DTMF Encoder&lt;br&gt;&lt;i&gt;MT8870&lt;/i&gt;" style="rounded=1;whiteSpace=wrap;html=1;fillColor=#b0e3e6;strokeColor=#0e8088;fontSize=15;" parent="1" vertex="1">
          <mxGeometry x="900" y="369" width="120" height="60" as="geometry" />
        </mxCell>
        <mxCell id="pyuSdrlK48sQNZrfjj12-15" style="edgeStyle=orthogonalEdgeStyle;rounded=0;orthogonalLoop=1;jettySize=auto;html=1;exitX=1;exitY=0.5;exitDx=0;exitDy=0;entryX=0.75;entryY=1;entryDx=0;entryDy=0;startArrow=classic;startFill=1;" parent="1" source="pyuSdrlK48sQNZrfjj12-7" target="pyuSdrlK48sQNZrfjj12-10" edge="1">
          <mxGeometry relative="1" as="geometry" />
        </mxCell>
        <mxCell id="pyuSdrlK48sQNZrfjj12-18" value="Audio" style="edgeLabel;html=1;align=center;verticalAlign=middle;resizable=0;points=[];fontSize=13;" parent="pyuSdrlK48sQNZrfjj12-15" vertex="1" connectable="0">
          <mxGeometry x="0.0471" y="4" relative="1" as="geometry">
            <mxPoint x="-76" y="34" as="offset" />
          </mxGeometry>
        </mxCell>
        <mxCell id="pyuSdrlK48sQNZrfjj12-7" value="SLIC UNIT" style="rounded=1;whiteSpace=wrap;html=1;fillColor=#b1ddf0;strokeColor=#10739e;fontSize=15;" parent="1" vertex="1">
          <mxGeometry x="360" y="609" width="120" height="60" as="geometry" />
        </mxCell>
        <mxCell id="pyuSdrlK48sQNZrfjj12-14" style="edgeStyle=orthogonalEdgeStyle;rounded=0;orthogonalLoop=1;jettySize=auto;html=1;exitX=1;exitY=0.5;exitDx=0;exitDy=0;entryX=0.5;entryY=1;entryDx=0;entryDy=0;startArrow=classic;startFill=1;" parent="1" source="pyuSdrlK48sQNZrfjj12-8" target="pyuSdrlK48sQNZrfjj12-10" edge="1">
          <mxGeometry relative="1" as="geometry" />
        </mxCell>
        <mxCell id="pyuSdrlK48sQNZrfjj12-21" value="Audio" style="edgeLabel;html=1;align=center;verticalAlign=middle;resizable=0;points=[];fontSize=13;" parent="pyuSdrlK48sQNZrfjj12-14" vertex="1" connectable="0">
          <mxGeometry x="-0.06" relative="1" as="geometry">
            <mxPoint x="-47" as="offset" />
          </mxGeometry>
        </mxCell>
        <mxCell id="pyuSdrlK48sQNZrfjj12-23" style="edgeStyle=orthogonalEdgeStyle;rounded=0;orthogonalLoop=1;jettySize=auto;html=1;exitX=0.75;exitY=1;exitDx=0;exitDy=0;" parent="1" source="pyuSdrlK48sQNZrfjj12-2" edge="1">
          <mxGeometry relative="1" as="geometry">
            <mxPoint x="450" y="449" as="targetPoint" />
          </mxGeometry>
        </mxCell>
        <mxCell id="pyuSdrlK48sQNZrfjj12-24" value="RM/FR&lt;br&gt;Signals" style="edgeLabel;html=1;align=center;verticalAlign=middle;resizable=0;points=[];fontSize=13;" parent="pyuSdrlK48sQNZrfjj12-23" vertex="1" connectable="0">
          <mxGeometry x="-0.0571" relative="1" as="geometry">
            <mxPoint y="25" as="offset" />
          </mxGeometry>
        </mxCell>
        <mxCell id="pyuSdrlK48sQNZrfjj12-8" value="SLIC UNIT" style="rounded=1;whiteSpace=wrap;html=1;fillColor=#b1ddf0;strokeColor=#10739e;fontSize=15;" parent="1" vertex="1">
          <mxGeometry x="360" y="539" width="120" height="60" as="geometry" />
        </mxCell>
        <mxCell id="pyuSdrlK48sQNZrfjj12-29" style="edgeStyle=orthogonalEdgeStyle;rounded=0;orthogonalLoop=1;jettySize=auto;html=1;exitX=1;exitY=0.5;exitDx=0;exitDy=0;entryX=0;entryY=0.5;entryDx=0;entryDy=0;" parent="1" source="pyuSdrlK48sQNZrfjj12-10" target="pyuSdrlK48sQNZrfjj12-4" edge="1">
          <mxGeometry relative="1" as="geometry" />
        </mxCell>
        <mxCell id="pyuSdrlK48sQNZrfjj12-30" value="Audio" style="edgeLabel;html=1;align=center;verticalAlign=middle;resizable=0;points=[];fontSize=13;" parent="pyuSdrlK48sQNZrfjj12-29" vertex="1" connectable="0">
          <mxGeometry x="0.08" y="-3" relative="1" as="geometry">
            <mxPoint as="offset" />
          </mxGeometry>
        </mxCell>
        <mxCell id="pyuSdrlK48sQNZrfjj12-46" style="edgeStyle=orthogonalEdgeStyle;rounded=0;orthogonalLoop=1;jettySize=auto;html=1;exitX=0.25;exitY=1;exitDx=0;exitDy=0;entryX=1;entryY=0.5;entryDx=0;entryDy=0;startArrow=classic;startFill=1;" parent="1" source="pyuSdrlK48sQNZrfjj12-10" target="pyuSdrlK48sQNZrfjj12-42" edge="1">
          <mxGeometry relative="1" as="geometry" />
        </mxCell>
        <mxCell id="pyuSdrlK48sQNZrfjj12-47" value="Audio" style="edgeLabel;html=1;align=center;verticalAlign=middle;resizable=0;points=[];fontSize=13;" parent="pyuSdrlK48sQNZrfjj12-46" vertex="1" connectable="0">
          <mxGeometry x="0.0667" y="-2" relative="1" as="geometry">
            <mxPoint as="offset" />
          </mxGeometry>
        </mxCell>
        <mxCell id="pyuSdrlK48sQNZrfjj12-10" value="&lt;div&gt;Switch Matrix&lt;/div&gt;&lt;div&gt;&lt;i&gt;MT8816&lt;/i&gt;&lt;/div&gt;" style="rounded=1;whiteSpace=wrap;html=1;fillColor=#fad7ac;strokeColor=#b46504;align=center;fontSize=15;" parent="1" vertex="1">
          <mxGeometry x="540" y="369" width="120" height="60" as="geometry" />
        </mxCell>
        <mxCell id="pyuSdrlK48sQNZrfjj12-33" style="edgeStyle=orthogonalEdgeStyle;rounded=0;orthogonalLoop=1;jettySize=auto;html=1;exitX=0.25;exitY=1;exitDx=0;exitDy=0;entryX=0.75;entryY=0;entryDx=0;entryDy=0;" parent="1" source="pyuSdrlK48sQNZrfjj12-11" target="pyuSdrlK48sQNZrfjj12-10" edge="1">
          <mxGeometry relative="1" as="geometry" />
        </mxCell>
        <mxCell id="pyuSdrlK48sQNZrfjj12-35" value="Audio" style="edgeLabel;html=1;align=center;verticalAlign=middle;resizable=0;points=[];fontSize=13;" parent="pyuSdrlK48sQNZrfjj12-33" vertex="1" connectable="0">
          <mxGeometry x="-0.1895" y="-2" relative="1" as="geometry">
            <mxPoint x="-18" as="offset" />
          </mxGeometry>
        </mxCell>
        <mxCell id="pyuSdrlK48sQNZrfjj12-11" value="Tone generator&lt;div&gt;&lt;i&gt;AD9833&lt;/i&gt;&lt;/div&gt;" style="rounded=1;whiteSpace=wrap;html=1;fillColor=#e1d5e7;strokeColor=#9673a6;fontSize=15;" parent="1" vertex="1">
          <mxGeometry x="720" y="249" width="120" height="60" as="geometry" />
        </mxCell>
        <mxCell id="pyuSdrlK48sQNZrfjj12-36" style="edgeStyle=orthogonalEdgeStyle;rounded=0;orthogonalLoop=1;jettySize=auto;html=1;exitX=0.5;exitY=1;exitDx=0;exitDy=0;" parent="1" source="pyuSdrlK48sQNZrfjj12-27" target="pyuSdrlK48sQNZrfjj12-4" edge="1">
          <mxGeometry relative="1" as="geometry" />
        </mxCell>
        <mxCell id="pyuSdrlK48sQNZrfjj12-53" value="GPIO" style="edgeLabel;html=1;align=center;verticalAlign=middle;resizable=0;points=[];fontSize=13;" parent="pyuSdrlK48sQNZrfjj12-36" vertex="1" connectable="0">
          <mxGeometry x="-0.1611" y="-5" relative="1" as="geometry">
            <mxPoint x="5" as="offset" />
          </mxGeometry>
        </mxCell>
        <mxCell id="pyuSdrlK48sQNZrfjj12-27" value="&lt;font&gt;GPIO-Expander&lt;br&gt;&lt;i&gt;MCP23017&lt;/i&gt;&lt;/font&gt;" style="rounded=1;whiteSpace=wrap;html=1;fillColor=#d5e8d4;strokeColor=#82b366;fontSize=15;" parent="1" vertex="1">
          <mxGeometry x="900" y="249" width="120" height="60" as="geometry" />
        </mxCell>
        <mxCell id="pyuSdrlK48sQNZrfjj12-40" style="edgeStyle=orthogonalEdgeStyle;rounded=0;orthogonalLoop=1;jettySize=auto;html=1;exitX=1;exitY=0.5;exitDx=0;exitDy=0;entryX=0;entryY=0.5;entryDx=0;entryDy=0;startArrow=classic;startFill=1;" parent="1" source="pyuSdrlK48sQNZrfjj12-38" target="pyuSdrlK48sQNZrfjj12-8" edge="1">
          <mxGeometry relative="1" as="geometry" />
        </mxCell>
        <mxCell id="pyuSdrlK48sQNZrfjj12-55" value="TIP&lt;div&gt;RING&lt;/div&gt;" style="edgeLabel;html=1;align=center;verticalAlign=middle;resizable=0;points=[];fontSize=13;" parent="pyuSdrlK48sQNZrfjj12-40" vertex="1" connectable="0">
          <mxGeometry x="0.0394" y="2" relative="1" as="geometry">
            <mxPoint y="2" as="offset" />
          </mxGeometry>
        </mxCell>
        <mxCell id="pyuSdrlK48sQNZrfjj12-38" value="&lt;font&gt;Analog Phone&lt;/font&gt;" style="rounded=1;whiteSpace=wrap;html=1;fillColor=#fff2cc;strokeColor=#d6b656;fontSize=15;" parent="1" vertex="1">
          <mxGeometry x="130" y="539" width="120" height="60" as="geometry" />
        </mxCell>
        <mxCell id="pyuSdrlK48sQNZrfjj12-41" style="edgeStyle=orthogonalEdgeStyle;rounded=0;orthogonalLoop=1;jettySize=auto;html=1;exitX=1;exitY=0.5;exitDx=0;exitDy=0;entryX=0;entryY=0.5;entryDx=0;entryDy=0;startArrow=classic;startFill=1;" parent="1" source="pyuSdrlK48sQNZrfjj12-39" target="pyuSdrlK48sQNZrfjj12-7" edge="1">
          <mxGeometry relative="1" as="geometry" />
        </mxCell>
        <mxCell id="pyuSdrlK48sQNZrfjj12-56" value="TIP&lt;div&gt;RING&lt;/div&gt;" style="edgeLabel;html=1;align=center;verticalAlign=middle;resizable=0;points=[];fontSize=13;" parent="pyuSdrlK48sQNZrfjj12-41" vertex="1" connectable="0">
          <mxGeometry x="-0.0667" relative="1" as="geometry">
            <mxPoint x="9" as="offset" />
          </mxGeometry>
        </mxCell>
        <mxCell id="pyuSdrlK48sQNZrfjj12-39" value="Analog Phone" style="rounded=1;whiteSpace=wrap;html=1;fillColor=#fff2cc;strokeColor=#d6b656;fontSize=15;" parent="1" vertex="1">
          <mxGeometry x="130" y="609" width="120" height="60" as="geometry" />
        </mxCell>
        <mxCell id="pyuSdrlK48sQNZrfjj12-42" value="SLIC UNIT" style="rounded=1;whiteSpace=wrap;html=1;fillColor=#b1ddf0;strokeColor=#10739e;fontSize=15;" parent="1" vertex="1">
          <mxGeometry x="360" y="469" width="120" height="60" as="geometry" />
        </mxCell>
        <mxCell id="pyuSdrlK48sQNZrfjj12-43" style="edgeStyle=orthogonalEdgeStyle;rounded=0;orthogonalLoop=1;jettySize=auto;html=1;exitX=1;exitY=0.5;exitDx=0;exitDy=0;entryX=0;entryY=0.5;entryDx=0;entryDy=0;startArrow=classic;startFill=1;" parent="1" source="pyuSdrlK48sQNZrfjj12-44" target="pyuSdrlK48sQNZrfjj12-42" edge="1">
          <mxGeometry relative="1" as="geometry" />
        </mxCell>
        <mxCell id="pyuSdrlK48sQNZrfjj12-54" value="TIP&lt;div&gt;RING&lt;/div&gt;" style="edgeLabel;html=1;align=center;verticalAlign=middle;resizable=0;points=[];fontSize=13;" parent="pyuSdrlK48sQNZrfjj12-43" vertex="1" connectable="0">
          <mxGeometry x="-0.15" y="2" relative="1" as="geometry">
            <mxPoint x="13" y="2" as="offset" />
          </mxGeometry>
        </mxCell>
        <mxCell id="pyuSdrlK48sQNZrfjj12-44" value="&lt;font&gt;Analog Phone&lt;/font&gt;" style="rounded=1;whiteSpace=wrap;html=1;fillColor=#fff2cc;strokeColor=#d6b656;fontSize=15;" parent="1" vertex="1">
          <mxGeometry x="130" y="469" width="120" height="60" as="geometry" />
        </mxCell>
      </root>
    </mxGraphModel>
  </diagram>
</mxfile>
